<svg xmlns="http://www.w3.org/2000/svg" width="1280" height="720" viewBox="0 0 1280 720">
  <defs>
    <linearGradient id="bg" x1="0" y1="0" x2="1" y2="1">
      <stop offset="0" stop-color="#06140b"/>
      <stop offset=".55" stop-color="#17412a"/>
      <stop offset="1" stop-color="#4ade80"/>
    </linearGradient>
    <filter id="shadow" x="-20%" y="-20%" width="140%" height="140%">
      <feDropShadow dx="0" dy="24" stdDeviation="32" flood-color="#000000" flood-opacity=".42"/>
    </filter>
  </defs>
  <rect width="1280" height="720" rx="52" fill="url(#bg)"/>
  <circle cx="986" cy="146" r="248" fill="#ffffff" opacity=".11"/>
  <g filter="url(#shadow)">
    <rect x="110" y="126" width="482" height="422" rx="42" fill="#08130d" stroke="#ffffff" stroke-opacity=".16"/>
    <rect x="154" y="178" width="272" height="54" rx="27" fill="#ffffff" opacity=".18"/>
    <rect x="234" y="272" width="304" height="54" rx="27" fill="#ffffff" opacity=".13"/>
    <rect x="154" y="368" width="250" height="54" rx="27" fill="#ffffff" opacity=".2"/>
    <rect x="676" y="154" width="398" height="380" rx="42" fill="#ffffff" opacity=".13" stroke="#ffffff" stroke-opacity=".18"/>
    <rect x="722" y="206" width="136" height="162" rx="26" fill="#ffffff" opacity=".2"/>
    <rect x="886" y="206" width="136" height="162" rx="26" fill="#ffffff" opacity=".14"/>
    <rect x="722" y="410" width="250" height="34" rx="17" fill="#ffffff" opacity=".18"/>
  </g>
  <text x="86" y="94" fill="#ffffff" font-family="Arial, sans-serif" font-size="26" font-weight="700" opacity=".86">CASE 04 / CONVERSATIONAL SHOPPING</text>
  <text x="86" y="636" fill="#ffffff" font-family="Arial, sans-serif" font-size="56" font-weight="800">AI Shopping Assistant</text>
</svg>
