<svg xmlns="http://www.w3.org/2000/svg" width="1280" height="720" viewBox="0 0 1280 720">
  <defs>
    <linearGradient id="bg" x1="0" y1="0" x2="1" y2="1">
      <stop offset="0" stop-color="#080910"/>
      <stop offset=".48" stop-color="#27104a"/>
      <stop offset="1" stop-color="#7c3aed"/>
    </linearGradient>
    <radialGradient id="glow" cx=".68" cy=".26" r=".58">
      <stop offset="0" stop-color="#ff6bd5" stop-opacity=".54"/>
      <stop offset=".58" stop-color="#5e6ad2" stop-opacity=".16"/>
      <stop offset="1" stop-color="#000000" stop-opacity="0"/>
    </radialGradient>
    <filter id="shadow" x="-20%" y="-20%" width="140%" height="140%">
      <feDropShadow dx="0" dy="26" stdDeviation="34" flood-color="#000000" flood-opacity=".42"/>
    </filter>
  </defs>
  <rect width="1280" height="720" rx="52" fill="url(#bg)"/>
  <rect width="1280" height="720" rx="52" fill="url(#glow)"/>
  <g opacity=".42">
    <path d="M0 115h1280M0 230h1280M0 345h1280M0 460h1280M0 575h1280" stroke="#ffffff" stroke-opacity=".08"/>
    <path d="M150 0v720M300 0v720M450 0v720M600 0v720M750 0v720M900 0v720M1050 0v720" stroke="#ffffff" stroke-opacity=".07"/>
  </g>
  <g filter="url(#shadow)">
    <rect x="126" y="118" width="492" height="392" rx="34" fill="#11131d" stroke="#ffffff" stroke-opacity=".16"/>
    <rect x="158" y="158" width="164" height="236" rx="26" fill="#ffffff" opacity=".1"/>
    <rect x="346" y="158" width="232" height="54" rx="27" fill="#ffffff" opacity=".22"/>
    <rect x="346" y="244" width="188" height="36" rx="18" fill="#ffffff" opacity=".12"/>
    <rect x="346" y="306" width="146" height="36" rx="18" fill="#ffffff" opacity=".1"/>
    <rect x="704" y="172" width="444" height="314" rx="38" fill="#ffffff" opacity=".12" stroke="#ffffff" stroke-opacity=".16"/>
    <path d="M816 256l174 100-174 100z" fill="#ffffff" opacity=".72"/>
    <rect x="746" y="526" width="350" height="28" rx="14" fill="#ffffff" opacity=".16"/>
  </g>
  <text x="86" y="94" fill="#ffffff" font-family="Arial, sans-serif" font-size="26" font-weight="700" opacity=".86">CASE 01 / AI CONTENT CREATION</text>
  <text x="86" y="636" fill="#ffffff" font-family="Arial, sans-serif" font-size="56" font-weight="800">AI Short Drama Studio</text>
</svg>
