<svg xmlns="http://www.w3.org/2000/svg" width="1280" height="720" viewBox="0 0 1280 720">
  <defs>
    <linearGradient id="bg" x1="0" y1="0" x2="1" y2="1">
      <stop offset="0" stop-color="#17061c"/>
      <stop offset=".5" stop-color="#4a1558"/>
      <stop offset="1" stop-color="#ff3bd5"/>
    </linearGradient>
    <filter id="shadow" x="-20%" y="-20%" width="140%" height="140%">
      <feDropShadow dx="0" dy="24" stdDeviation="32" flood-color="#000000" flood-opacity=".42"/>
    </filter>
  </defs>
  <rect width="1280" height="720" rx="52" fill="url(#bg)"/>
  <path d="M148 580C332 388 486 374 610 480c126 106 302 76 530-138" fill="none" stroke="#ffffff" stroke-width="2" stroke-opacity=".12"/>
  <g filter="url(#shadow)">
    <rect x="150" y="124" width="348" height="456" rx="52" fill="#ffffff" opacity=".11" stroke="#ffffff" stroke-opacity=".18"/>
    <circle cx="324" cy="230" r="62" fill="#ffffff" opacity=".2"/>
    <path d="M248 336c46-34 106-34 152 0l38 174H210z" fill="#ffffff" opacity=".18"/>
    <rect x="604" y="154" width="486" height="360" rx="46" fill="#ffffff" opacity=".13" stroke="#ffffff" stroke-opacity=".18"/>
    <rect x="660" y="212" width="152" height="216" rx="30" fill="#ffffff" opacity=".16"/>
    <rect x="846" y="212" width="188" height="52" rx="26" fill="#ffffff" opacity=".24"/>
    <rect x="846" y="306" width="148" height="34" rx="17" fill="#ffffff" opacity=".15"/>
    <rect x="846" y="366" width="110" height="34" rx="17" fill="#ffffff" opacity=".12"/>
  </g>
  <text x="86" y="94" fill="#ffffff" font-family="Arial, sans-serif" font-size="26" font-weight="700" opacity=".86">CASE 05 / GENERATIVE RETAIL</text>
  <text x="86" y="636" fill="#ffffff" font-family="Arial, sans-serif" font-size="56" font-weight="800">AI Virtual Try-on</text>
</svg>
