<svg xmlns="http://www.w3.org/2000/svg" width="1280" height="720" viewBox="0 0 1280 720">
  <defs>
    <linearGradient id="bg" x1="0" y1="0" x2="1" y2="1">
      <stop offset="0" stop-color="#080b17"/>
      <stop offset=".52" stop-color="#1d2552"/>
      <stop offset="1" stop-color="#5e6ad2"/>
    </linearGradient>
    <filter id="shadow" x="-20%" y="-20%" width="140%" height="140%">
      <feDropShadow dx="0" dy="24" stdDeviation="30" flood-color="#000000" flood-opacity=".42"/>
    </filter>
  </defs>
  <rect width="1280" height="720" rx="52" fill="url(#bg)"/>
  <path d="M1110 50c-110 62-168 160-174 294-5 118-72 204-196 258" fill="none" stroke="#ffffff" stroke-width="2" stroke-opacity=".1"/>
  <g filter="url(#shadow)">
    <rect x="136" y="132" width="348" height="418" rx="40" fill="#ffffff" opacity=".1" stroke="#ffffff" stroke-opacity=".18"/>
    <rect x="182" y="184" width="256" height="142" rx="28" fill="#ffffff" opacity=".18"/>
    <rect x="182" y="360" width="218" height="28" rx="14" fill="#ffffff" opacity=".2"/>
    <rect x="182" y="418" width="154" height="28" rx="14" fill="#ffffff" opacity=".13"/>
    <rect x="590" y="168" width="520" height="320" rx="42" fill="#ffffff" opacity=".13" stroke="#ffffff" stroke-opacity=".18"/>
    <circle cx="850" cy="328" r="82" fill="#ffffff" opacity=".18"/>
    <path d="M832 278l94 50-94 50z" fill="#ffffff" opacity=".7"/>
  </g>
  <text x="86" y="94" fill="#ffffff" font-family="Arial, sans-serif" font-size="26" font-weight="700" opacity=".86">CASE 03 / SMART VIDEO</text>
  <text x="86" y="636" fill="#ffffff" font-family="Arial, sans-serif" font-size="56" font-weight="800">Honor Smart Video</text>
</svg>
