<svg xmlns="http://www.w3.org/2000/svg" width="1280" height="720" viewBox="0 0 1280 720">
  <defs>
    <linearGradient id="bg" x1="0" y1="0" x2="1" y2="1">
      <stop offset="0" stop-color="#090d17"/>
      <stop offset=".52" stop-color="#17223a"/>
      <stop offset="1" stop-color="#7690ff"/>
    </linearGradient>
    <filter id="shadow" x="-20%" y="-20%" width="140%" height="140%">
      <feDropShadow dx="0" dy="24" stdDeviation="32" flood-color="#000000" flood-opacity=".42"/>
    </filter>
  </defs>
  <rect width="1280" height="720" rx="52" fill="url(#bg)"/>
  <g opacity=".42">
    <path d="M0 144h1280M0 288h1280M0 432h1280M0 576h1280" stroke="#ffffff" stroke-opacity=".08"/>
    <path d="M182 0v720M364 0v720M546 0v720M728 0v720M910 0v720M1092 0v720" stroke="#ffffff" stroke-opacity=".07"/>
  </g>
  <g filter="url(#shadow)">
    <rect x="106" y="128" width="1068" height="424" rx="42" fill="#080b12" stroke="#ffffff" stroke-opacity=".18"/>
    <rect x="152" y="180" width="216" height="318" rx="30" fill="#ffffff" opacity=".1"/>
    <rect x="410" y="180" width="292" height="58" rx="29" fill="#ffffff" opacity=".18"/>
    <rect x="410" y="278" width="646" height="46" rx="23" fill="#ffffff" opacity=".1"/>
    <rect x="410" y="362" width="552" height="46" rx="23" fill="#ffffff" opacity=".09"/>
    <rect x="410" y="446" width="426" height="46" rx="23" fill="#ffffff" opacity=".12"/>
  </g>
  <text x="86" y="94" fill="#ffffff" font-family="Arial, sans-serif" font-size="26" font-weight="700" opacity=".86">CASE 07 / ENTERPRISE SAAS</text>
  <text x="86" y="636" fill="#ffffff" font-family="Arial, sans-serif" font-size="56" font-weight="800">Ziroom Enterprise Platform</text>
</svg>
